<svg width="62" height="62" viewBox="0 0 62 62" fill="none" xmlns="http://www.w3.org/2000/svg">
<path d="M0 52.0628V42.5303H9.57783H19.1557V52.0628V61.5954H9.57783H0V52.0628Z" fill="#0599CF"/>
<path d="M0 30.8411V21.3086H9.57783H19.1557V30.8411V40.3737H9.57783H0V30.8411Z" fill="#0599CF"/>
<path d="M21.2344 30.8411V21.3086H30.8122H40.39V30.8411V40.3737H30.8122H21.2344V30.8411Z" fill="#0599CF"/>
<path d="M0 9.53255V0H9.57783H19.1557V9.53255V19.0651H9.57783H0V9.53255Z" fill="#0599CF"/>
<path d="M21.2344 9.53255V0H30.8122H40.39V9.53255V19.0651H30.8122H21.2344V9.53255Z" fill="#0599CF"/>
<path d="M42.108 9.53255L42.082 0H51.6599H61.2377L61.2117 9.53255L61.1944 19.0651H51.6599H42.1254L42.108 9.53255Z" fill="#0599CF"/>
</svg>
